<svg width="1400" height="263" viewBox="0 0 1400 263" fill="none" xmlns="http://www.w3.org/2000/svg">
<path d="M0 211.791L22.7866 189.058L96.9038 263L195.201 164.934L103.752 73.7002L78.723 98.6701L145.204 164.934L100.964 209.13L9.57524 117.957L0 211.791Z" fill="#D3BEB2"/>
<path d="M204.414 51.1491L181.628 73.882L107.511 0L9.21289 98.0659L100.662 189.3L125.691 164.33L59.2102 98.0055L103.45 53.8698L194.839 145.043L204.414 51.1491Z" fill="#D3BEB2"/>
<g clip-path="url(#clip0_2_128)">
<path d="M372.714 187.434C363.217 187.434 354.842 186.016 347.813 183.18C340.709 180.344 335.176 176.016 331.287 170.12C327.399 164.225 325.305 156.762 325.305 147.583H353.571C353.795 150.941 354.618 153.703 356.113 156.016C357.609 158.329 359.703 160.046 362.469 161.24C365.236 162.434 368.452 163.031 372.34 163.031C375.555 163.031 378.247 162.658 380.341 161.837C382.435 161.016 384.155 159.971 385.276 158.553C386.398 157.135 386.921 155.568 386.921 153.703C386.921 152.061 386.398 150.568 385.351 149.3C384.304 148.031 382.584 146.911 380.117 145.867C377.724 144.822 374.508 143.926 370.396 143.106L359.329 140.792C349.682 138.703 342.055 135.195 336.447 130.27C330.839 125.27 328.072 118.553 328.072 109.971C328.072 103.031 329.941 96.9115 333.755 91.6877C337.569 86.4638 342.728 82.4339 349.383 79.4489C356.039 76.5384 363.741 75.0459 372.415 75.0459C381.089 75.0459 388.94 76.5384 395.446 79.5235C401.877 82.5086 406.887 86.6877 410.401 91.9862C413.916 97.3593 415.711 103.628 415.711 110.792H387.146C386.921 107.21 385.575 104.449 383.183 102.434C380.79 100.419 377.2 99.4489 372.415 99.4489C369.349 99.4489 366.881 99.822 364.937 100.494C362.993 101.165 361.497 102.21 360.6 103.479C359.703 104.747 359.179 106.165 359.179 107.807C359.179 109.523 359.703 111.016 360.675 112.359C361.647 113.628 363.292 114.747 365.46 115.717C367.629 116.688 370.47 117.509 373.91 118.255L382.883 120.195C388.94 121.464 394.1 123.18 398.437 125.27C402.774 127.359 406.363 129.822 409.13 132.658C411.897 135.494 413.916 138.628 415.262 142.21C416.533 145.717 417.206 149.598 417.206 153.777C417.206 161.016 415.411 167.061 411.897 172.135C408.308 177.135 403.223 180.941 396.642 183.553C390.062 186.165 382.061 187.434 372.789 187.434H372.714Z" fill="#D3BEB2"/>
<path d="M452.576 186.165L420.197 76.6128H453.473L468.503 143.926H469.401L487.048 76.6128H513.295L530.942 144.225H531.839L546.869 76.6128H580.145L547.767 186.165H519.202L500.657 124.971H499.76L481.215 186.165H452.65H452.576Z" fill="#D3BEB2"/>
<path d="M601.531 186.165H569.452L605.719 76.6128H646.398L682.665 186.165H650.585L626.582 106.762H625.684L601.681 186.165H601.531ZM595.699 142.881H656.119V165.12H595.699V142.881Z" fill="#D3BEB2"/>
<path d="M689.544 186.165V76.6128H736.878C745.028 76.6128 752.132 78.18 758.264 81.4635C764.396 84.6725 769.181 89.2247 772.546 95.0456C775.986 100.866 777.706 107.658 777.706 115.493C777.706 123.329 775.986 130.12 772.472 135.792C768.957 141.538 764.097 145.941 757.815 149.001C751.534 152.06 744.206 153.702 735.831 153.702H707.565V130.643H729.774C733.288 130.643 736.354 130.046 738.822 128.777C741.29 127.508 743.234 125.792 744.58 123.553C745.926 121.314 746.599 118.628 746.599 115.568C746.599 112.508 745.926 109.672 744.58 107.434C743.234 105.195 741.364 103.478 738.822 102.359C736.28 101.24 733.288 100.568 729.774 100.568H719.305V186.314H689.544V186.165Z" fill="#D3BEB2"/>
<path d="M800.961 187.881C796.624 187.881 793.035 186.464 790.119 183.628C787.202 180.792 785.782 177.21 785.782 172.956C785.782 168.702 787.202 165.12 790.119 162.284C793.035 159.449 796.624 158.031 800.961 158.031C805.299 158.031 808.888 159.449 811.804 162.284C814.72 165.12 816.141 168.702 816.141 172.956C816.141 177.21 814.72 180.792 811.804 183.628C808.888 186.464 805.299 187.881 800.961 187.881Z" fill="#D3BEB2"/>
<path d="M885.086 187.583C875.065 187.583 866.092 185.419 858.091 181.09C850.09 176.762 843.809 170.419 839.173 162.06C834.536 153.702 832.218 143.478 832.218 131.389C832.218 119.299 834.611 108.926 839.322 100.493C844.033 92.1352 850.389 85.7919 858.39 81.4636C866.391 77.1352 875.29 75.0457 885.16 75.0457C892.115 75.0457 898.471 76.0158 904.303 77.8815C910.136 79.7471 915.296 82.5083 919.633 86.165C923.97 89.8218 927.559 94.2994 930.176 99.5232C932.793 104.747 934.438 110.867 935.037 117.658H904.827C904.602 115.195 904.079 112.881 903.182 110.792C902.284 108.702 901.013 106.986 899.443 105.493C897.872 104.001 895.928 102.881 893.685 102.061C891.442 101.24 888.899 100.867 885.983 100.867C881.048 100.867 876.785 102.061 873.346 104.523C869.906 106.986 867.289 110.419 865.494 114.971C863.699 119.523 862.802 124.971 862.802 131.314C862.802 137.658 863.699 143.553 865.569 148.105C867.363 152.583 869.981 156.016 873.42 158.255C876.86 160.493 880.973 161.613 885.833 161.613C888.6 161.613 891.068 161.24 893.236 160.568C895.405 159.896 897.274 158.852 898.919 157.583C900.564 156.24 901.836 154.672 902.882 152.807C903.855 150.941 904.528 148.852 904.902 146.463H935.111C934.738 151.09 933.466 155.866 931.223 160.717C928.98 165.568 925.764 169.971 921.652 174.001C917.464 178.031 912.379 181.314 906.322 183.777C900.265 186.24 893.236 187.508 885.16 187.508L885.086 187.583Z" fill="#D3BEB2"/>
<path d="M997.999 187.583C988.054 187.583 979.006 185.419 970.93 181.09C962.854 176.762 956.423 170.419 951.712 162.06C947.001 153.702 944.608 143.478 944.608 131.389C944.608 119.299 947.001 108.926 951.712 100.493C956.423 92.1352 962.854 85.7919 970.93 81.4636C979.006 77.1352 988.054 75.0457 997.999 75.0457C1007.94 75.0457 1016.99 77.2098 1025.07 81.4636C1033.14 85.7173 1039.5 92.0606 1044.29 100.493C1049.07 108.926 1051.39 119.15 1051.39 131.389C1051.39 143.628 1049 153.777 1044.29 162.135C1039.58 170.493 1033.14 176.837 1025.07 181.09C1016.99 185.344 1008.02 187.508 997.999 187.508V187.583ZM997.999 161.762C1002.93 161.762 1007.12 160.568 1010.49 158.255C1013.85 155.941 1016.39 152.508 1018.11 148.031C1019.83 143.553 1020.66 138.031 1020.66 131.463C1020.66 124.896 1019.76 119.374 1018.11 114.822C1016.39 110.269 1013.85 106.837 1010.49 104.523C1007.12 102.21 1002.93 101.016 997.999 101.016C993.064 101.016 988.951 102.21 985.586 104.523C982.221 106.837 979.679 110.269 977.959 114.822C976.239 119.374 975.342 124.896 975.342 131.463C975.342 138.031 976.239 143.478 977.959 148.031C979.679 152.508 982.221 155.941 985.586 158.255C988.951 160.568 993.064 161.762 997.999 161.762Z" fill="#D3BEB2"/>
<path d="M1061.48 186.165V76.6128H1138.73V100.568H1091.32V125.269H1134.02V148.628H1091.32V186.09H1061.56L1061.48 186.165Z" fill="#D3BEB2"/>
<path d="M1146.06 186.165V76.6128H1223.3V100.568H1175.89V125.269H1218.59V148.628H1175.89V186.09H1146.13L1146.06 186.165Z" fill="#D3BEB2"/>
<path d="M1230.63 186.165V76.6128H1309.74V100.568H1260.39V119.075H1305.63V142.434H1260.39V162.135H1309.45V186.09H1230.63V186.165Z" fill="#D3BEB2"/>
<path d="M1320.89 186.165V76.6128H1400V100.568H1350.65V119.075H1395.89V142.434H1350.65V162.135H1399.7V186.09H1320.89V186.165Z" fill="#D3BEB2"/>
</g>
<defs>
<clipPath id="clip0_2_128">
<rect width="1074.69" height="112.761" fill="white" transform="translate(325.305 75.1204)"/>
</clipPath>
</defs>
</svg>
